<?xml version="1.0" standalone="no"?>
<!DOCTYPE svg PUBLIC "-//W3C//DTD SVG 20010904//EN"
 "http://www.w3.org/TR/2001/REC-SVG-20010904/DTD/svg10.dtd">
<svg version="1.0" xmlns="http://www.w3.org/2000/svg"
 width="720.000000pt" height="480.000000pt" viewBox="0 0 720.000000 480.000000"
 preserveAspectRatio="xMidYMid meet">
<metadata>
Created by potrace 1.16, written by Peter Selinger 2001-2019
</metadata>
<g transform="translate(0.000000,480.000000) scale(0.100000,-0.100000)"
fill="#000000" stroke="none">
<path d="M3412 3644 c3 -245 5 -298 17 -296 7 1 19 -2 25 -8 7 -5 16 -7 19 -3
9 8 7 385 -2 473 l-6 65 -8 -100 c-4 -55 -7 -161 -7 -235 0 -74 -5 -142 -10
-150 -5 -8 -10 -13 -10 -10 0 3 -3 129 -6 280 -4 151 -8 277 -10 279 -3 3 -3
-130 -2 -295z"/>
<path d="M2705 3016 c-22 -7 -52 -11 -67 -10 l-27 3 -3 -182 c-4 -237 -3 -245
28 -239 28 5 27 -1 28 194 1 139 -2 153 -26 149 -5 0 -8 7 -8 18 0 28 39 35
49 8 l8 -21 5 22 c4 14 14 22 28 22 30 0 24 -44 -7 -48 -24 -4 -21 -32 3 -32
21 0 27 -44 21 -142 -4 -61 -11 -96 -21 -107 -24 -26 -20 -51 8 -51 20 0 24 6
28 43 9 74 10 387 1 386 -4 -1 -26 -7 -48 -13z"/>
<path d="M4631 2983 c-7 -21 -14 -45 -17 -53 -3 -8 5 2 16 23 18 33 23 36 35
23 8 -8 23 -12 33 -10 19 5 128 -24 277 -75 256 -86 320 -110 323 -120 2 -5
-22 -36 -52 -68 -51 -53 -69 -83 -48 -83 4 0 27 28 51 61 24 33 54 67 67 76
30 19 33 47 5 38 -11 -3 -28 -2 -38 3 -10 5 -36 15 -58 22 -22 6 -59 20 -82
31 -24 10 -47 19 -53 19 -6 0 -18 4 -28 9 -9 5 -51 19 -92 31 -41 12 -83 26
-92 31 -10 5 -26 9 -35 9 -10 0 -35 6 -58 14 -22 8 -59 20 -82 27 -24 7 -43
16 -43 21 0 22 -18 4 -29 -29z"/>
<path d="M4510 2880 c-7 -16 -16 -30 -21 -30 -5 0 -9 -5 -9 -12 0 -6 -17 -45
-37 -85 -32 -62 -41 -73 -58 -68 -11 3 -56 10 -100 16 -44 5 -94 11 -110 14
-17 2 -60 7 -95 10 -36 3 -83 8 -104 11 -26 3 -42 0 -47 -8 -6 -10 -12 -8 -23
7 -16 20 -16 20 -13 -2 4 -32 10 -35 64 -38 67 -4 156 -16 168 -24 6 -4 26 -8
45 -10 19 -1 100 -14 180 -27 80 -14 166 -29 193 -33 35 -6 47 -5 47 4 0 15
-28 29 -49 26 -7 -1 -20 1 -30 5 -9 4 -31 8 -50 10 -19 2 -36 6 -39 9 -3 3 9
33 26 67 54 111 84 180 79 184 -2 3 -10 -9 -17 -26z"/>
<path d="M4900 2671 c0 -137 4 -202 11 -207 8 -5 11 29 9 122 -3 156 -4 154
15 154 8 0 15 7 15 15 0 9 -7 18 -15 21 -16 6 -21 44 -6 44 13 0 28 -22 35
-55 4 -16 16 -37 27 -45 17 -14 20 -31 23 -150 5 -157 6 -169 15 -115 3 22 5
113 3 202 l-3 163 -42 11 c-23 6 -52 17 -64 25 l-23 14 0 -199z"/>
<path d="M2387 2226 c-4 -9 -14 -16 -24 -17 -14 0 -13 -2 5 -9 30 -13 31 -79
1 -119 -23 -31 -19 -54 8 -44 14 5 15 0 9 -43 -3 -27 -9 -85 -12 -129 -4 -44
-11 -86 -17 -93 -6 -7 -7 -43 -3 -90 l7 -78 -35 -14 c-27 -10 -33 -17 -25 -26
6 -8 9 -39 7 -71 -3 -56 -3 -57 28 -65 l31 -8 -2 -154 c-1 -88 -6 -160 -12
-168 -14 -18 -23 -59 -12 -52 5 3 9 -2 9 -11 0 -10 -5 -13 -12 -9 -8 5 -9 0
-4 -17 4 -13 11 -52 16 -87 4 -35 10 -66 13 -69 9 -9 17 140 23 457 3 173 9
450 13 615 7 275 4 343 -12 301z"/>
<path d="M2730 2115 c0 -12 -14 -15 -66 -14 -36 1 -67 -1 -70 -4 -3 -2 -5
-111 -5 -242 0 -140 -4 -246 -10 -257 -18 -33 2 -39 28 -8 17 20 34 30 53 30
38 0 60 -9 60 -26 0 -8 6 -14 13 -14 9 0 13 63 15 275 2 189 0 275 -7 275 -6
0 -11 -7 -11 -15z m-11 -60 c12 -7 -7 -55 -21 -55 -18 0 -7 -32 13 -37 20 -6
21 -9 14 -123 -4 -64 -7 -133 -7 -154 0 -20 -2 -35 -6 -32 -3 3 -11 -2 -18
-12 -12 -16 -13 -16 -15 3 -1 11 -1 84 1 163 1 91 -1 142 -8 142 -9 0 -26
-161 -22 -215 3 -56 1 -78 -9 -88 -20 -20 -24 3 -25 131 0 158 2 182 17 179
21 -4 20 34 -2 40 -27 7 -30 60 -3 65 22 6 79 1 91 -7z"/>
<path d="M3448 2028 c-3 -7 -1 -35 4 -63 9 -61 4 -81 -25 -90 -12 -4 -25 -8
-29 -10 -5 -1 -11 -3 -15 -4 -5 -1 4 -8 18 -16 15 -8 29 -23 32 -34 8 -31 -15
-66 -46 -69 -15 -2 -27 -8 -27 -13 0 -5 -19 -9 -42 -9 -62 0 -41 -8 27 -11 33
-1 66 -6 73 -12 18 -14 15 -41 -8 -57 -19 -14 -29 -37 -11 -26 5 3 11 -1 14
-9 8 -19 -12 -23 -121 -23 l-94 -1 6 25 c6 24 6 24 -12 7 -10 -10 -17 -22 -15
-26 3 -4 -10 -7 -29 -6 -18 1 -48 -1 -67 -5 -41 -10 -51 2 -44 55 5 38 -12 99
-27 99 -10 0 -18 -172 -9 -184 4 -4 111 -9 238 -10 l231 -1 0 253 c0 146 -4
252 -9 252 -5 0 -11 -5 -13 -12z"/>
<path d="M4148 1983 c-2 -10 0 -35 4 -56 5 -23 4 -45 -2 -57 -6 -10 -10 -93
-10 -188 0 -146 2 -171 16 -176 9 -3 18 -6 20 -6 6 0 5 275 -3 393 -5 98 -16
134 -25 90z"/>
<path d="M4910 1973 c0 -42 14 -51 70 -45 l50 5 0 -32 c0 -21 -5 -31 -15 -31
-23 0 -45 -54 -45 -112 0 -29 1 -82 1 -118 0 -36 2 -76 5 -89 11 -52 17 -4 17
139 0 83 3 153 7 155 21 13 29 -34 32 -189 l3 -168 -45 5 c-25 3 -54 7 -65 9
-12 2 -21 -4 -23 -14 -3 -14 3 -18 30 -18 18 0 51 -5 73 -10 22 -5 41 -7 43
-5 4 3 4 139 3 421 l-1 91 -56 6 c-30 3 -62 11 -70 18 -12 9 -14 6 -14 -18z"/>
<path d="M3537 1983 c-4 -3 -7 -106 -7 -227 l0 -221 162 0 c90 0 201 -2 248
-5 81 -5 85 -4 81 15 -2 11 -6 54 -10 95 -4 55 -8 68 -13 50 -4 -14 -8 -37 -8
-52 0 -14 -6 -29 -12 -31 -8 -3 -5 -6 5 -6 16 -1 17 -3 3 -16 -16 -17 -36 -20
-36 -6 0 11 -51 21 -64 13 -12 -7 -88 -10 -100 -4 -4 2 -4 7 1 11 5 3 1 14
-10 25 -19 18 -19 17 -12 -14 7 -30 6 -32 -16 -25 -13 4 -30 14 -37 24 -12 14
-13 14 -10 -4 3 -17 -3 -20 -49 -20 -29 -1 -53 1 -53 4 0 4 14 12 30 19 39 18
38 30 -2 27 -55 -4 -71 43 -30 84 13 13 16 12 28 -4 14 -18 14 -18 28 1 8 10
14 20 13 20 -1 1 -19 4 -40 7 -66 9 -81 35 -50 88 17 29 17 30 -11 56 -24 22
-28 31 -23 64 5 41 5 43 -6 32z"/>
<path d="M4252 1750 l-2 -246 126 -1 c69 0 128 -4 131 -7 4 -3 16 -6 28 -6 21
0 21 2 18 158 -2 86 -3 172 -3 190 0 20 -4 31 -10 27 -6 -4 -9 -12 -8 -18 1
-7 -4 -22 -11 -35 -13 -25 -6 -86 10 -76 5 3 9 -4 9 -16 0 -12 -4 -18 -10 -15
-11 7 -12 -2 -14 -97 -2 -77 -13 -96 -46 -78 -15 8 -21 20 -20 38 3 41 1 56
-7 48 -4 -4 -8 -19 -9 -34 -1 -15 -2 -30 -3 -34 -2 -13 -30 3 -34 20 -4 15 -5
15 -6 0 -1 -19 -12 -21 -59 -12 -24 5 -31 12 -36 39 -6 33 18 103 26 72 4 -20
48 -3 48 19 0 12 -6 15 -25 10 -14 -4 -25 -2 -25 3 0 5 -8 8 -17 7 -11 -1 -19
10 -24 32 -4 18 -4 31 -1 28 3 -3 11 6 18 20 12 23 11 28 -11 48 -20 19 -25
34 -28 92 -1 38 -4 -41 -5 -176z"/>
<path d="M2129 1585 c-8 -8 -32 -17 -52 -18 -20 -2 -39 -5 -41 -8 -2 -2 -5
-33 -7 -69 l-4 -65 60 1 60 2 3 46 c2 26 2 65 0 87 -3 36 -4 38 -19 24z"/>
<path d="M2877 1115 c-9 -391 -11 -834 -4 -841 9 -9 18 484 15 826 l-3 345 -8
-330z"/>
<path d="M447 1414 c-23 -12 -27 -21 -28 -57 -1 -74 -8 -181 -15 -209 -3 -17
-1 -28 5 -28 6 0 11 5 11 10 0 6 11 10 25 10 17 0 26 7 30 23 7 33 12 258 6
262 -3 2 -18 -3 -34 -11z"/>
<path d="M1031 1415 c-1 -6 4 -16 10 -22 13 -13 8 -119 -6 -116 -5 2 -11 28
-13 58 -4 77 -24 70 -22 -7 0 -35 -1 -92 -2 -126 -2 -35 0 -68 3 -73 7 -11 69
0 69 12 0 5 -6 8 -12 6 -7 -1 -14 8 -16 19 -2 12 -12 24 -23 27 -22 6 -25 30
-6 45 24 19 75 24 84 8 5 -8 8 23 7 77 0 59 -5 92 -12 95 -7 2 -12 -1 -12 -7
0 -15 -37 -14 -43 2 -3 6 -6 7 -6 2z"/>
<path d="M1950 1358 c0 -5 -25 -8 -55 -8 l-55 0 0 -49 c0 -53 7 -65 30 -51 8
5 19 5 25 0 5 -4 33 -4 60 0 28 5 80 9 117 9 l67 1 6 34 c13 69 11 71 -98 71
-53 0 -97 -3 -97 -7z"/>
<path d="M6720 1179 c0 -85 4 -139 10 -140 45 -6 45 -6 48 66 2 39 1 97 -3
130 -5 51 -10 62 -31 72 l-24 11 0 -139z"/>
<path d="M3443 1118 c-16 -17 -20 -27 -12 -35 7 -7 6 -25 -5 -62 -8 -28 -12
-59 -9 -68 4 -9 -1 -21 -11 -29 -25 -18 -17 -58 11 -62 32 -5 43 -50 17 -66
-10 -6 -26 -11 -34 -11 -12 0 -15 -22 -16 -128 -1 -115 1 -127 17 -127 30 0
49 -11 49 -30 0 -19 -19 -30 -51 -30 -14 0 -19 -7 -19 -25 0 -18 5 -25 20 -25
11 0 20 -7 20 -15 0 -8 -7 -15 -15 -15 -19 0 -20 -50 -2 -69 6 -7 8 -12 2 -11
-5 2 -12 2 -15 1 -6 -3 -137 -4 -187 -2 l-32 1 0 70 c1 63 11 90 21 58 2 -6
12 -12 22 -14 13 -2 16 4 14 23 -2 21 -9 26 -35 28 -37 3 -35 6 -37 -90 -1
-64 -3 -70 -23 -73 -28 -4 -38 29 -29 99 4 27 3 55 -1 62 -4 7 -10 -24 -13
-68 -5 -77 -6 -80 -30 -80 -23 0 -25 4 -24 40 1 22 4 58 8 80 5 27 4 35 -2 26
-8 -11 -10 -11 -14 0 -3 8 -9 -21 -13 -63 -4 -43 -11 -75 -15 -73 -11 7 -23
-32 -15 -45 4 -6 23 -11 43 -10 130 1 409 -14 419 -22 9 -7 14 -6 18 3 3 8 4
209 3 447 l-3 434 -22 -24z"/>
<path d="M3526 1125 c-3 -8 -5 -205 -6 -437 l0 -423 103 3 c56 1 130 3 165 5
45 1 62 -2 62 -11 0 -22 25 -92 32 -92 12 0 9 -28 -4 -50 -10 -16 -9 -26 5
-53 11 -20 15 -40 11 -52 -5 -13 -4 -16 4 -11 7 4 12 20 12 36 0 16 5 51 10
77 6 30 7 65 1 93 -5 25 -9 37 -10 28 -2 -34 -19 -18 -31 29 -6 26 -17 51 -23
55 -8 5 -8 14 1 33 9 20 17 25 32 20 14 -5 20 -2 20 9 0 9 5 16 10 16 6 0 10
-28 10 -65 l0 -65 91 1 c88 1 91 2 85 22 -3 12 -6 25 -6 28 0 7 -52 5 -66 -3
-5 -3 -25 -4 -44 -4 l-35 2 -6 59 c-4 33 -7 145 -7 249 l1 188 -61 2 -62 1 -2
-249 c-2 -189 -6 -250 -15 -254 -10 -3 -13 17 -13 77 0 58 -4 81 -12 82 -7 0
-30 2 -50 4 l-38 3 0 -83 0 -84 -60 1 c-64 1 -70 4 -43 23 13 10 14 17 5 45
-10 28 -9 35 6 46 29 22 34 16 30 -36 -2 -33 1 -50 9 -50 7 0 11 23 11 68 l0
68 -34 -4 c-35 -4 -64 11 -64 33 0 17 61 38 84 29 15 -6 16 5 14 122 l-3 129
-36 1 c-48 1 -59 10 -59 44 0 20 6 31 20 35 21 7 29 55 10 55 -6 0 -10 26 -10
59 0 33 -4 63 -10 66 -14 9 -12 31 5 48 13 13 12 17 -9 31 -21 13 -25 13 -30
1z m354 -375 c9 -16 7 -24 -5 -36 -16 -16 -11 -39 6 -28 5 3 7 9 4 14 -3 4 2
11 11 14 14 5 14 9 3 22 -10 13 -10 17 1 24 8 5 17 7 20 5 9 -6 5 -205 -4
-235 -5 -16 -4 -20 2 -12 6 9 8 -1 8 -29 -1 -28 -6 -44 -16 -46 -12 -4 -12 -2
-2 5 10 7 10 11 -2 22 -13 10 -17 9 -22 -4 -11 -30 -21 -7 -16 39 3 36 0 50
-14 63 -25 22 -27 40 -6 38 9 0 18 7 20 16 3 14 -1 16 -15 11 -16 -6 -16 -5
-5 9 10 13 11 22 3 37 -14 24 -14 34 -2 26 6 -3 7 9 4 30 -6 39 9 48 27 15z"/>
<path d="M4166 1105 c-19 -28 -20 -51 -21 -410 0 -209 -2 -389 -5 -400 -4 -15
0 -20 14 -18 11 1 25 -5 30 -13 8 -10 10 101 8 378 -1 216 -3 415 -5 443 l-2
49 -19 -29z"/>
<path d="M4253 848 c4 -149 7 -341 7 -425 l0 -154 23 7 c12 4 112 8 222 9
l200 1 3 23 c2 13 0 21 -5 18 -5 -3 -21 0 -36 8 -16 8 -29 10 -32 4 -10 -15
-23 -11 -28 9 -4 16 -5 16 -6 0 -2 -30 -31 -21 -31 10 l0 27 -13 -25 c-17 -34
-84 -41 -112 -10 -16 18 -16 20 -2 20 15 0 17 16 17 136 l0 135 -31 -21 c-27
-20 -30 -27 -25 -59 3 -20 7 -79 8 -131 l3 -95 -52 -3 -53 -2 0 39 c0 22 -3
47 -7 57 -4 11 -3 15 4 11 6 -4 14 0 17 9 8 21 8 26 -2 20 -5 -3 -15 5 -22 18
-14 27 2 72 22 60 8 -5 9 -1 5 10 -4 10 -7 23 -8 29 0 7 -5 3 -10 -8 -6 -14
-7 -4 -3 30 4 28 12 60 20 72 23 36 18 80 -11 99 -26 17 -33 49 -12 57 8 3 5
11 -10 26 -27 26 -29 44 -7 66 9 8 13 22 10 30 -3 8 -1 17 4 20 6 4 10 -3 10
-14 0 -12 7 -21 15 -21 23 0 20 69 -2 77 -10 4 -24 13 -32 21 -20 19 4 34 44
27 17 -3 46 -1 65 5 22 6 36 6 40 0 4 -6 30 -9 58 -7 50 3 52 2 52 -24 0 -15
-7 -29 -15 -33 -8 -3 -15 -17 -15 -30 0 -18 4 -24 15 -20 16 7 19 -7 8 -46
l-7 -25 -7 30 c-6 26 -7 24 -8 -16 -1 -38 3 -48 18 -52 11 -2 21 -15 24 -28 2
-13 5 44 6 126 l1 150 -141 1 c-89 1 -145 6 -152 13 -6 6 -15 11 -21 11 -6 0
-7 -100 -3 -272z"/>
<path d="M7010 1069 c0 -10 5 -21 10 -24 6 -3 10 -43 10 -88 0 -73 3 -86 28
-123 24 -36 31 -40 45 -29 22 16 22 37 1 33 -10 -2 -18 5 -19 14 -4 25 12 32
24 11 6 -10 11 -13 11 -6 0 6 -4 14 -9 17 -5 3 -12 26 -15 51 -4 24 -11 47
-17 50 -5 4 -9 15 -9 26 0 11 4 18 9 15 5 -3 11 3 14 14 5 18 -2 25 -19 18 -3
-2 -11 6 -17 17 -15 26 -47 29 -47 4z"/>
<path d="M2416 1062 c-3 -6 -3 -17 0 -25 4 -13 19 -14 81 -10 l75 6 -3 -218
c-2 -195 -1 -218 14 -227 9 -5 17 -20 17 -34 0 -21 4 -25 23 -22 17 2 22 9 20
28 -4 43 8 120 19 120 5 0 8 -8 7 -17 -3 -31 2 -69 8 -55 2 6 9 12 14 12 14 0
10 -37 -6 -54 -8 -8 -15 -17 -15 -20 0 -3 7 -6 15 -6 8 0 15 -4 15 -10 0 -5 4
-10 8 -10 5 0 12 53 15 118 3 65 7 123 8 128 1 5 1 62 0 127 -1 90 -4 118 -13
115 -7 -3 -14 -14 -16 -26 -2 -11 -10 -26 -18 -32 -19 -17 -18 -27 6 -33 17
-4 20 -13 20 -69 -1 -36 -7 -74 -15 -88 -8 -14 -15 -36 -15 -50 -1 -23 -2 -23
-10 -5 -4 11 -5 57 -2 102 3 53 1 87 -6 96 -11 13 -10 62 1 74 13 13 7 23 -14
23 -18 0 -20 -4 -15 -25 4 -14 2 -25 -4 -25 -5 0 -10 9 -10 20 0 11 -7 23 -15
26 -8 4 -15 15 -15 25 0 14 -8 19 -27 20 -88 3 -127 9 -133 19 -5 8 -10 9 -14
2z m233 -262 l-1 -110 -32 -26 -31 -27 -3 98 c-3 92 -1 100 24 136 15 22 31
39 36 39 5 0 8 -49 7 -110z"/>
<path d="M1234 800 l-2 -200 29 0 29 0 0 101 c0 91 -2 101 -19 106 -17 4 -19
12 -15 61 2 32 3 60 4 63 0 4 9 9 21 12 34 9 22 51 -16 55 l-30 3 -1 -201z"/>
<path d="M1135 979 c-22 -4 -62 -8 -90 -8 l-50 -1 -3 -180 c-1 -117 1 -180 8
-180 6 0 11 31 11 73 4 186 6 248 12 253 11 12 99 24 123 18 l25 -6 -1 -170
c-1 -93 1 -172 4 -175 3 -4 6 27 7 68 0 41 2 129 3 197 1 67 0 121 -3 121 -3
-1 -24 -5 -46 -10z"/>
<path d="M784 947 c3 -12 7 -92 8 -177 l1 -155 7 100 c4 55 8 123 9 151 1 49
3 52 31 58 17 3 42 3 58 0 l27 -5 -3 -146 c-2 -93 1 -150 7 -156 8 -8 11 19
12 88 0 55 3 137 5 183 5 82 5 83 -18 77 -46 -11 -92 -13 -121 -4 -27 8 -29 6
-23 -14z"/>
<path d="M4925 720 c2 -135 4 -248 4 -251 2 -14 51 5 51 19 0 12 -3 13 -12 4
-18 -18 -38 -14 -38 7 0 23 10 30 48 37 15 3 29 8 33 12 3 4 1 78 -4 165 -10
164 -29 217 -27 75 1 -46 -1 -102 -5 -124 -5 -27 -3 -44 4 -48 8 -5 8 -13 1
-27 -24 -44 -30 -14 -30 152 l0 170 43 -3 42 -3 6 -190 c3 -104 7 -192 8 -195
1 -3 5 1 10 8 4 7 7 61 5 120 -1 59 -3 154 -3 212 l-1 105 -69 0 -69 0 3 -245z"/>
<path d="M699 955 c-3 -2 -29 -5 -57 -6 -55 -2 -60 -8 -43 -51 20 -51 35 -137
35 -198 1 -63 2 -65 29 -68 l27 -3 0 90 c0 59 4 91 11 91 7 0 10 -29 8 -85 -2
-46 0 -87 4 -91 4 -4 7 20 7 53 0 33 3 108 7 166 5 91 4 107 -9 107 -8 0 -17
-2 -19 -5z"/>
<path d="M411 879 c-21 -8 -23 -14 -17 -52 3 -23 2 -88 -2 -144 -4 -57 -6
-103 -4 -103 2 0 12 5 22 10 13 7 21 7 25 0 14 -23 25 5 25 63 0 34 7 89 16
122 30 115 30 117 1 106 -13 -5 -28 -6 -33 -1 -5 4 -20 4 -33 -1z"/>
<path d="M6508 883 c-2 -5 -2 -70 0 -145 l3 -138 35 0 c36 0 36 0 30 38 -9 54
-10 151 -2 198 7 38 5 42 -16 48 -31 8 -46 8 -50 -1z"/>
<path d="M101 848 c5 -9 9 -29 10 -45 0 -25 1 -26 9 -8 6 13 9 -17 9 -85 1
-105 1 -105 26 -106 22 -2 25 2 24 30 0 17 2 65 6 106 12 139 17 125 -41 125
-46 0 -51 -2 -43 -17z"/>
<path d="M259 868 c-3 -16 -6 -290 -2 -281 3 8 14 11 29 7 22 -6 24 -3 25 27
1 66 9 175 14 212 5 37 5 37 -30 37 -19 0 -35 -1 -36 -2z"/>
<path d="M6724 784 c3 -26 6 -91 6 -145 l0 -99 30 0 30 0 -5 102 c-6 115 -2
138 24 138 39 0 42 -15 43 -193 0 -28 3 -37 14 -33 7 3 17 0 21 -7 4 -7 10 40
13 103 5 108 6 115 25 112 30 -6 33 -16 33 -114 0 -83 8 -121 19 -90 3 6 8 10
12 7 8 -4 25 214 18 221 -4 4 -41 7 -192 18 -32 2 -61 9 -63 15 -2 6 -11 11
-19 11 -13 0 -15 -8 -9 -46z"/>
<path d="M2117 813 c-4 -4 -20 -7 -35 -8 l-27 0 -5 -113 c-3 -62 -3 -117 -2
-122 2 -6 21 -10 42 -10 l38 0 4 118 c4 114 0 150 -15 135z"/>
<path d="M3690 662 l0 -127 50 -1 50 0 0 123 c0 121 0 123 -22 124 -13 0 -35
2 -50 4 l-28 4 0 -127z"/>
<path d="M7180 769 c0 -11 -4 -18 -9 -14 -5 3 -13 0 -16 -6 -4 -5 -13 -8 -20
-5 -8 3 -15 0 -17 -5 -5 -14 -38 0 -38 16 0 12 -29 30 -36 22 -5 -4 -11 -241
-7 -258 6 -23 57 -22 78 1 10 11 19 38 20 60 2 41 -9 44 -17 5 -4 -19 -5 -19
-17 3 -7 13 -9 31 -5 40 4 9 8 22 9 27 0 6 7 24 14 40 12 29 13 29 24 10 18
-30 34 -28 46 7 14 39 14 78 1 78 -5 0 -10 -9 -10 -21z"/>
<path d="M3159 668 c-1 -60 -2 -114 -3 -120 -2 -21 42 -22 47 -1 4 16 5 17 6
1 0 -10 6 -18 11 -18 6 0 10 48 10 125 l0 125 -35 -3 -35 -2 -1 -107z"/>
<path d="M3270 652 l0 -128 34 4 35 4 -1 124 -1 124 -34 0 -33 0 0 -128z"/>
<path d="M5290 628 c-13 -50 -16 -57 -32 -79 -7 -10 -8 -23 -3 -35 8 -17 9
-15 13 9 2 16 9 27 15 24 16 -5 22 -67 7 -67 -17 0 -1 -70 21 -94 11 -11 19
-34 18 -50 0 -27 -2 -28 -9 -11 -7 17 -9 16 -10 -10 -1 -18 -9 4 -19 54 -10
47 -23 87 -29 89 -7 2 -12 13 -12 23 0 11 -4 17 -10 14 -5 -3 -10 -24 -10 -47
0 -36 2 -39 16 -27 14 12 16 9 13 -26 -3 -27 0 -39 8 -38 7 2 15 -16 19 -44 9
-59 33 -103 62 -114 19 -7 22 -5 22 17 0 19 -4 25 -14 21 -21 -8 -26 14 -12
54 7 20 9 44 5 55 -4 10 -8 51 -8 90 -1 39 -4 100 -8 135 l-6 64 -13 -40 -12
-40 5 58 c7 67 -2 75 -17 15z"/>
<path d="M2308 466 c-5 -27 -8 -72 -8 -100 0 -72 -11 -135 -20 -112 -5 15 -12
9 -39 -33 -27 -41 -36 -49 -47 -40 -11 9 -14 7 -14 -13 0 -33 4 -36 48 -29 33
6 39 4 57 -24 l20 -30 7 175 c5 96 7 193 6 215 l-3 40 -7 -49z"/>
<path d="M1934 399 c-25 -27 -27 -32 -13 -40 35 -19 35 -154 0 -147 -12 3 -16
16 -17 48 -3 75 -2 74 -18 61 -11 -10 -16 -9 -23 3 -6 11 -9 -4 -8 -42 0 -35
7 -66 17 -80 20 -29 57 -37 65 -14 7 18 28 42 37 42 3 0 3 -13 0 -29 -3 -16
-1 -37 5 -48 10 -16 11 -16 9 7 -1 14 2 36 6 49 5 14 4 27 -3 34 -6 6 -11 24
-11 39 0 16 -7 43 -16 60 -13 24 -14 36 -5 56 17 36 9 36 -25 1z"/>
<path d="M5440 342 c0 -21 -9 -55 -20 -77 -11 -22 -20 -45 -20 -53 0 -20 37
-56 45 -43 3 6 -1 14 -9 17 -10 4 -16 18 -16 36 0 25 3 28 14 19 12 -10 15 -5
21 29 8 44 20 52 31 18 11 -38 44 -78 64 -78 10 0 22 -10 26 -22 l7 -22 19 24
c14 18 18 32 13 55 -3 16 -9 51 -12 78 -3 32 -10 47 -19 47 -8 0 -17 -6 -19
-12 -6 -15 -55 -20 -55 -6 0 6 -9 8 -21 5 -12 -3 -22 0 -26 9 -10 27 -23 14
-23 -24z"/>
</g>
</svg>
