<?xml version="1.0" standalone="no"?>
<!DOCTYPE svg PUBLIC "-//W3C//DTD SVG 20010904//EN"
 "http://www.w3.org/TR/2001/REC-SVG-20010904/DTD/svg10.dtd">
<svg version="1.0" xmlns="http://www.w3.org/2000/svg"
 width="970.000000pt" height="272.000000pt" viewBox="0 0 970.000000 272.000000"
 preserveAspectRatio="xMidYMid meet">
<metadata>
Created by potrace 1.16, written by Peter Selinger 2001-2019
</metadata>
<g transform="translate(0.000000,272.000000) scale(0.100000,-0.100000)"
fill="#000000" stroke="none">
<path d="M3134 2697 c-8 -4 -14 -16 -14 -26 0 -10 -3 -21 -7 -25 -5 -4 -9 -12
-9 -17 -1 -5 -2 -13 -3 -19 0 -5 -10 -10 -21 -10 -12 0 -42 -11 -68 -25 -26
-14 -43 -25 -38 -25 5 0 4 -6 -1 -12 -6 -7 -13 -25 -17 -40 -5 -22 -12 -28
-34 -28 -45 1 -62 21 -62 74 0 40 4 48 25 58 19 8 28 8 40 -2 8 -7 19 -10 23
-6 13 13 -39 47 -62 40 -37 -10 -56 -42 -56 -96 0 -39 5 -54 25 -73 28 -29 40
-30 79 -10 37 20 48 9 17 -16 -34 -27 -93 -25 -128 5 -25 21 -28 31 -28 83 0
44 5 65 23 90 39 55 139 57 152 3 4 -18 8 -21 14 -12 5 8 1 22 -11 35 -28 33
-34 36 -80 33 -46 -2 -113 -48 -113 -76 0 -9 -4 -20 -8 -26 -5 -5 -4 -37 1
-71 8 -59 11 -64 48 -85 21 -12 39 -25 39 -28 0 -11 41 -4 81 13 23 9 41 11
52 6 8 -5 42 -9 74 -8 85 2 271 -6 276 -11 9 -10 45 -95 42 -98 -2 -2 -51 -4
-109 -4 -58 -1 -106 -5 -106 -10 0 -6 154 -8 365 -7 201 2 365 6 365 10 0 4
-10 9 -22 11 -16 2 -22 9 -20 22 2 10 -2 16 -8 14 -6 -2 -11 -8 -11 -13 0 -21
-36 -27 -168 -31 -123 -4 -139 -2 -166 16 -16 11 -24 20 -17 20 7 0 30 16 50
35 20 19 44 35 52 35 15 1 50 23 50 32 0 3 -19 4 -42 4 -35 -1 -44 3 -56 25
-28 49 11 119 67 119 54 0 51 -52 -5 -70 -56 -19 -41 -58 17 -45 23 5 28 10
20 18 -15 15 -14 27 4 27 8 0 18 12 21 27 13 49 -51 72 -176 64 -112 -7 -223
-5 -231 6 -7 7 -6 13 1 18 14 8 12 56 -3 75 -13 16 -98 21 -123 7z m406 -132
c0 -9 -7 -18 -15 -21 -8 -4 -15 -17 -15 -29 0 -28 -24 -55 -49 -55 -38 0 -30
-15 16 -30 53 -17 64 -37 39 -75 -19 -29 -70 -41 -109 -26 -21 8 -27 17 -27
41 0 18 6 33 15 36 10 4 13 13 10 24 -3 10 -1 21 5 25 7 4 5 13 -4 27 -11 15
-12 27 -4 49 11 32 42 45 82 35 14 -3 28 -2 31 4 9 15 25 12 25 -5z m-444 -20
c32 -49 -3 -125 -57 -125 -55 0 -77 74 -38 124 27 35 72 35 95 1z"/>
<path d="M3929 2697 c-26 -13 -80 -87 -73 -99 6 -9 3 -10 -46 -13 -50 -4 -50
-4 -50 -13 0 -5 13 -7 28 -4 39 5 62 -20 62 -67 0 -50 -31 -83 -73 -79 -47 4
-65 46 -44 99 17 43 7 52 -17 17 -19 -27 -20 -50 -4 -95 10 -28 20 -36 55 -45
24 -6 48 -19 54 -29 28 -52 59 5 59 107 0 53 -3 64 -17 64 -14 0 -13 3 5 20
12 12 22 32 22 45 0 59 35 91 91 83 29 -4 33 -41 7 -46 -11 -2 -18 3 -18 12 0
22 -27 20 -40 -3 -5 -11 -10 -36 -10 -55 0 -29 4 -36 19 -36 15 0 19 7 17 33
-1 27 3 33 23 35 34 5 45 -20 44 -108 -1 -113 6 -121 117 -119 63 1 93 5 101
15 15 18 33 18 49 -1 7 -8 17 -12 23 -8 5 3 8 2 4 -3 -3 -5 3 -27 14 -48 23
-48 25 -70 4 -62 -8 3 -15 1 -15 -4 0 -6 15 -10 33 -10 23 0 28 3 17 10 -8 5
-11 12 -7 16 4 4 0 18 -9 32 -13 19 -14 30 -5 48 6 13 14 24 18 24 10 0 9 46
-1 83 -6 19 -3 35 9 53 15 23 22 26 61 21 27 -3 45 0 47 7 3 8 9 7 18 -2 12
-11 11 -15 -3 -26 -10 -7 -18 -23 -18 -34 0 -26 -25 -52 -50 -52 -10 0 -21 -4
-24 -9 -6 -10 16 -21 42 -21 8 0 25 -9 36 -19 19 -17 29 -18 85 -10 36 5 72
16 81 24 10 9 20 11 26 5 5 -5 10 14 11 51 2 34 -2 59 -7 59 -18 0 -51 -64
-47 -92 3 -23 0 -28 -19 -28 -21 0 -21 3 -16 67 4 60 3 66 -12 60 -12 -5 -16
-3 -14 5 3 7 17 14 31 16 22 3 27 -1 27 -17 l0 -21 21 21 c11 11 30 19 42 17
20 -3 22 -10 25 -65 2 -52 6 -61 19 -56 11 4 14 2 11 -8 -2 -7 -15 -16 -29
-20 -33 -9 -31 -10 104 -13 78 -2 123 1 133 9 13 9 10 10 -19 7 -27 -3 -38 1
-51 19 -20 29 -20 52 -1 89 17 34 59 49 86 32 12 -8 20 -8 24 -2 3 6 17 10 31
10 18 0 24 -5 24 -22 l0 -22 16 22 c20 29 54 29 54 1 0 -14 -5 -19 -14 -16
-21 8 -43 -22 -51 -68 l-7 -40 21 23 c23 23 41 22 41 -3 0 -8 10 -21 23 -29
26 -17 114 -7 128 15 6 11 14 8 39 -16 16 -16 30 -36 30 -46 0 -9 9 -28 21
-43 16 -21 17 -26 5 -26 -8 0 -18 -4 -21 -10 -6 -10 213 -5 224 6 3 3 -18 4
-47 3 -56 -4 -57 -4 -42 14 57 68 58 71 36 115 -14 27 -14 35 -1 85 5 20 3 27
-6 27 -8 0 -15 -11 -15 -25 -2 -33 -21 -55 -49 -55 -42 0 -36 -15 12 -30 37
-12 49 -20 51 -38 7 -49 -63 -85 -121 -63 -31 12 -37 50 -12 71 9 7 13 20 10
28 -3 8 -1 20 5 27 8 9 8 15 0 20 -16 10 -12 62 6 80 12 11 30 15 57 13 26 -2
42 2 44 10 7 18 -57 15 -96 -4 -25 -12 -38 -14 -54 -6 -23 11 -119 24 -172 23
-137 -2 -234 -9 -252 -19 -19 -10 -28 -10 -51 2 -18 9 -33 11 -43 5 -10 -6 -7
-9 12 -9 28 0 42 -20 33 -45 -3 -8 -23 -20 -45 -26 -34 -11 -37 -14 -28 -31 9
-17 17 -19 47 -13 l37 7 -19 -21 c-11 -12 -31 -21 -47 -21 -57 0 -76 83 -31
133 16 19 16 20 -6 8 -20 -11 -27 -10 -43 5 -13 11 -38 17 -80 18 -44 2 -65 7
-74 19 -9 13 -14 14 -24 4 -10 -9 -15 -8 -25 5 -11 15 -13 15 -24 -3 -7 -11
-17 -17 -23 -13 -6 3 -21 2 -32 -4 -12 -5 -40 -15 -63 -22 -35 -10 -45 -10
-66 4 -18 12 -38 14 -81 10 -43 -4 -57 -3 -57 7 0 7 -6 5 -14 -7 -13 -16 -17
-17 -28 -5 -9 10 -9 12 0 7 8 -5 12 1 12 18 0 22 -5 26 -29 26 -24 0 -29 -5
-35 -31 -10 -51 -9 -52 37 -47 36 4 43 2 43 -12 0 -14 -8 -17 -43 -14 l-43 3
0 -40 c0 -39 0 -39 40 -39 29 0 40 4 40 15 0 8 5 15 11 15 6 0 9 -12 7 -27 -3
-27 -5 -28 -68 -31 l-66 -3 4 106 c4 92 2 105 -12 105 -9 0 -16 5 -16 10 0 6
32 10 75 10 60 0 75 -3 75 -15 0 -8 5 -15 10 -15 14 0 12 26 -2 38 -7 6 -40
10 -74 10 -40 -1 -69 5 -86 16 -35 23 -61 26 -89 13z"/>
<path d="M8110 2690 c-11 -11 -18 -25 -15 -30 3 -5 1 -11 -5 -15 -5 -3 -10
-13 -10 -21 0 -38 -91 -82 -103 -50 -5 11 -26 15 -89 15 -46 -1 -87 0 -93 2
-5 1 -48 3 -95 3 -103 2 -151 12 -144 31 3 7 0 16 -6 20 -6 4 -11 1 -9 -6 3
-28 -1 -39 -17 -39 -12 0 -15 7 -12 25 3 14 1 25 -4 25 -4 0 -14 -11 -20 -25
-16 -35 -65 -35 -74 0 -5 20 -8 22 -19 11 -8 -8 -25 -11 -39 -9 -25 5 -26 3
-26 -39 0 -90 -12 -168 -26 -168 -11 0 -14 23 -14 105 0 97 -1 105 -19 105
-24 0 -37 -36 -20 -56 6 -8 13 -42 14 -75 2 -68 20 -95 54 -84 11 3 21 13 21
21 0 19 5 18 36 -11 28 -26 49 -32 59 -15 4 6 -5 10 -19 10 -25 0 -26 2 -26
66 0 56 -2 65 -16 60 -10 -4 -14 -1 -12 6 3 7 17 14 31 16 22 3 27 -1 27 -20
l0 -22 16 22 c20 29 54 29 54 1 0 -15 -5 -19 -15 -15 -18 7 -42 -27 -51 -72
-7 -35 -3 -38 26 -19 17 10 22 9 30 -3 5 -8 7 -17 4 -21 -9 -15 27 -31 53 -25
16 4 45 9 66 11 21 3 42 7 47 10 4 3 23 -2 42 -9 21 -9 39 -11 48 -6 8 5 19 5
25 1 16 -13 55 -20 55 -10 0 5 12 9 26 9 14 0 34 5 45 11 15 7 24 7 34 -1 20
-17 244 -19 284 -3 16 7 35 21 40 32 12 21 53 18 45 -4 -7 -17 61 -49 82 -37
9 5 34 6 56 2 40 -8 114 12 130 35 10 14 10 105 0 105 -12 0 -33 -41 -41 -81
-4 -21 -14 -35 -24 -37 -16 -3 -17 3 -11 64 6 61 6 67 -10 61 -12 -5 -16 -3
-14 5 3 7 17 14 31 16 22 3 27 -1 27 -20 l0 -22 16 22 c19 28 51 28 59 1 l7
-21 15 22 c9 13 23 20 36 18 19 -3 23 -11 27 -63 4 -45 9 -60 21 -61 18 -1 19
53 1 98 -11 26 -64 63 -75 52 -3 -3 -54 -8 -113 -10 -60 -3 -111 -9 -114 -13
-7 -9 -19 -7 -55 9 -16 7 -55 12 -86 11 -40 0 -61 4 -69 14 -7 9 -11 18 -8 21
10 9 -20 79 -35 82 -9 2 -25 -6 -37 -18z m46 -23 c-3 -12 -8 -66 -12 -120 -6
-88 -5 -97 10 -97 28 0 12 -25 -17 -28 -23 -3 -27 0 -27 24 l0 27 -21 -27
c-52 -67 -106 2 -64 83 15 31 33 41 71 41 23 0 24 3 24 60 0 54 2 60 21 60 17
0 20 -4 15 -23z m64 -119 l0 -22 15 21 c11 16 25 21 65 21 l50 0 0 -59 c0 -84
28 -77 50 14 19 72 40 62 40 -19 0 -56 2 -65 16 -60 10 4 14 1 12 -6 -3 -7
-15 -14 -27 -16 -16 -3 -24 2 -28 18 l-6 21 -22 -21 c-13 -12 -31 -20 -42 -18
-15 3 -19 14 -21 66 -3 58 -4 62 -23 52 -11 -6 -24 -8 -29 -5 -13 8 -40 -35
-47 -77 -3 -23 -11 -38 -19 -38 -10 0 -14 17 -14 65 0 36 -3 64 -7 64 -20 -3
-26 2 -13 11 27 17 50 12 50 -12z"/>
<path d="M1470 2665 c-11 -13 -8 -15 14 -15 l26 0 -6 -94 c-7 -100 -2 -113 40
-102 34 8 56 63 56 135 0 56 5 66 28 59 4 -2 7 -48 7 -103 0 -92 2 -100 19
-97 11 2 17 -1 14 -10 -3 -7 -18 -13 -34 -13 -22 0 -30 5 -32 21 -3 22 -3 22
-27 -2 -28 -28 -76 -32 -96 -8 -9 11 -12 44 -11 106 2 81 0 89 -15 86 -11 -2
-17 -11 -16 -23 4 -32 5 -68 2 -102 -5 -76 55 -130 108 -97 26 16 47 18 38 4
-3 -5 -3 -10 2 -11 4 0 23 -2 42 -4 19 -1 53 3 75 9 26 8 52 9 71 4 36 -10
145 -6 138 5 -2 4 1 7 6 7 6 0 11 -4 11 -10 0 -13 33 -13 63 1 19 9 33 7 67
-10 34 -16 46 -18 52 -9 4 7 8 9 8 3 0 -5 9 1 20 15 11 14 20 19 20 13 0 -15
34 -17 60 -3 10 5 21 21 24 36 6 21 9 24 21 14 8 -7 14 -15 13 -18 -2 -22 5
-33 31 -46 16 -9 31 -13 33 -10 9 8 78 14 78 6 0 -6 37 -7 111 -3 8 1 24 8 35
16 17 13 16 14 -20 8 -47 -7 -56 4 -56 70 0 26 -4 47 -10 47 -5 0 -10 5 -10
10 0 6 7 10 15 10 11 0 15 11 15 40 0 33 3 40 19 40 17 0 18 -5 14 -41 l-6
-40 49 3 c48 3 48 3 58 -34 16 -54 22 -54 39 -3 9 25 13 44 9 41 -4 -2 -32 4
-62 14 -40 12 -59 24 -68 43 -11 23 -19 27 -51 25 -21 0 -44 3 -52 7 -12 8
-12 6 0 -8 16 -20 8 -47 -15 -47 -12 0 -15 7 -12 25 4 19 2 23 -7 15 -7 -6
-11 -20 -8 -30 5 -18 0 -20 -43 -22 -27 0 -56 0 -64 1 -8 2 -91 3 -185 2 -180
0 -206 6 -220 49 -13 42 -55 19 -55 -31 0 -11 -7 -19 -17 -20 -10 0 -29 -2
-43 -4 -14 -1 -31 2 -37 7 -7 6 -22 8 -33 5 -24 -6 -50 16 -50 43 0 24 -13 32
-43 25 -31 -8 -47 -39 -50 -93 -1 -31 -6 -44 -20 -48 -24 -7 -34 3 -19 18 19
19 14 82 -9 112 -24 30 -32 32 -49 11z"/>
<path d="M6619 2643 c-20 -3 -28 -11 -33 -35 -9 -45 -8 -48 18 -48 20 0 24 6
30 40 4 27 11 40 22 40 13 0 15 -7 9 -40 -6 -36 -5 -40 14 -40 12 0 21 -4 21
-10 0 -5 -9 -10 -21 -10 -18 0 -20 -5 -17 -47 3 -43 5 -48 26 -45 12 2 22 -1
22 -7 0 -13 -43 -25 -67 -17 -10 3 -34 1 -53 -3 -35 -9 -35 -9 15 -11 28 -1
55 -1 60 1 6 1 37 3 70 2 33 0 49 2 35 4 -44 8 -63 33 -57 76 7 48 32 77 68
77 57 0 77 -83 32 -133 -17 -18 -16 -18 12 -11 45 10 45 11 45 71 0 45 -3 54
-15 49 -8 -3 -15 -1 -15 3 0 10 24 21 46 21 8 0 14 -10 14 -22 l0 -22 16 22
c21 30 56 26 64 -7 l5 -24 12 27 c13 28 46 35 60 14 4 -7 8 -35 8 -63 0 -44 2
-50 19 -47 17 3 18 2 7 -12 -8 -9 -23 -17 -35 -17 -20 -1 -20 -2 -1 -6 11 -3
26 -10 33 -16 19 -15 32 9 25 46 -5 25 -3 28 13 25 14 -3 19 -12 19 -36 0 -35
9 -42 19 -16 9 22 -20 64 -43 64 -21 0 -35 24 -32 55 2 37 -15 49 -76 52 -135
5 -254 2 -278 -7 -34 -13 -32 -14 -40 17 -8 33 -23 54 -39 52 -6 -1 -23 -4
-37 -6z"/>
<path d="M908 2613 c-31 -21 -38 -32 -38 -59 0 -19 -4 -34 -10 -34 -5 0 -10 7
-10 15 0 9 -10 15 -26 15 -22 0 -24 -3 -18 -22 13 -42 34 -77 53 -88 28 -14
34 -13 49 10 12 19 11 21 -15 18 -41 -4 -38 30 4 51 36 18 40 28 17 45 -13 10
-12 15 9 40 l25 28 21 -21 c20 -20 29 -51 13 -51 -4 0 -13 -10 -21 -21 -13
-21 -12 -22 28 -16 26 3 44 1 50 -7 13 -15 -5 -36 -31 -36 -21 0 -22 -9 -4
-33 24 -31 58 -1 86 76 9 25 8 27 -15 27 -14 0 -25 -4 -25 -10 0 -5 -4 -10
-10 -10 -5 0 -10 13 -10 29 0 22 -9 34 -40 55 -22 14 -41 26 -42 25 -2 0 -20
-12 -40 -26z"/>
<path d="M6535 2610 c-13 -26 -22 -31 -48 -30 -50 3 -65 -2 -27 -9 l35 -6 3
-62 c3 -55 5 -63 23 -63 11 0 17 -4 14 -10 -9 -15 -55 -12 -61 5 -5 13 -8 13
-21 -1 -22 -22 -57 -14 -61 14 -5 30 11 48 49 56 22 4 30 11 27 23 -5 26 -38
29 -38 4 0 -12 -6 -21 -15 -21 -18 0 -20 36 -3 46 8 5 6 10 -8 15 -34 14 -47
11 -30 -7 14 -13 14 -19 1 -50 -8 -19 -24 -48 -35 -64 l-21 -30 29 6 c17 4 32
1 36 -5 4 -6 39 -11 85 -11 l78 0 -1 65 c-1 45 -5 65 -13 65 -7 0 -13 5 -13
10 0 6 6 10 14 10 8 0 16 14 18 38 7 48 3 51 -17 12z"/>
<path d="M6038 2598 c-12 -12 -35 -19 -70 -20 -78 -2 -81 -2 -110 5 -20 5 -32
2 -50 -15 -13 -13 -16 -17 -7 -10 9 7 32 12 51 10 l33 -3 3 -61 c3 -57 5 -62
27 -67 24 -4 25 -3 25 55 0 51 -2 59 -16 54 -10 -4 -14 -1 -12 6 3 7 17 14 31
16 22 3 27 -1 27 -20 l0 -22 16 22 c20 29 54 29 54 1 0 -14 -5 -19 -14 -16
-22 9 -44 -24 -51 -73 -6 -42 -5 -44 9 -26 8 10 17 24 20 30 3 7 8 6 15 -4 30
-46 36 -48 117 -54 45 -3 84 -2 87 1 12 11 -23 35 -36 25 -7 -5 -40 -9 -74
-10 l-63 0 0 74 c0 67 2 74 20 74 17 0 18 -5 13 -49 -3 -28 -3 -57 0 -65 8
-20 34 -10 42 14 3 10 22 24 41 30 38 13 44 42 10 48 -15 3 -18 0 -13 -17 6
-26 -20 -30 -30 -5 -9 23 25 46 62 42 29 -3 30 -5 35 -63 4 -50 8 -60 23 -58
12 0 16 -4 13 -13 -3 -8 -1 -14 3 -14 5 0 18 -3 28 -6 15 -6 16 -4 6 7 -7 7
-13 22 -13 33 0 41 -21 96 -36 96 -8 0 -12 5 -9 10 3 6 16 10 27 10 35 0 13
11 -31 15 -22 2 -59 -2 -82 -10 -53 -19 -56 -19 -64 5 -3 11 -12 20 -20 20 -7
0 -15 4 -17 8 -1 4 -11 0 -20 -10z"/>
<path d="M764 2431 c4 -6 2 -19 -6 -28 -7 -9 -8 -14 -2 -10 6 4 19 -2 29 -13
10 -11 21 -17 26 -14 5 2 17 -4 29 -16 11 -11 25 -20 30 -20 12 0 13 -10 1
-29 -5 -7 -14 -10 -20 -7 -6 4 -26 9 -43 11 -29 4 -30 3 -12 -9 10 -8 23 -12
29 -9 5 3 4 0 -3 -8 -10 -10 -91 -13 -417 -14 l-406 0 3 -30 3 -30 269 -3 268
-2 -46 -45 c-26 -25 -51 -44 -56 -42 -14 4 -169 -160 -176 -187 -3 -14 -10
-26 -14 -26 -4 0 -11 -11 -14 -25 -4 -14 -11 -25 -16 -25 -11 0 -87 -117 -113
-173 -9 -20 -20 -56 -24 -80 -3 -23 -12 -47 -18 -54 -26 -26 -57 -221 -57
-362 0 -162 36 -391 62 -391 4 0 11 -19 15 -42 4 -23 11 -49 15 -58 59 -124
96 -185 142 -232 15 -16 28 -35 28 -44 0 -8 7 -17 15 -20 8 -4 15 -10 15 -16
0 -5 27 -37 60 -70 33 -34 60 -65 60 -70 0 -5 8 -12 18 -15 9 -4 40 -24 68
-45 28 -21 57 -38 65 -38 8 0 31 -16 51 -35 20 -19 43 -35 50 -35 7 0 38 -15
68 -32 l55 -31 205 -3 c156 -2 193 -1 155 7 -216 43 -394 134 -552 283 -108
102 -171 186 -238 319 -204 403 -176 876 73 1251 107 161 317 340 455 387 41
15 47 24 17 32 -11 3 -20 12 -20 21 0 13 11 16 55 16 30 0 55 5 55 10 0 15 16
12 34 -6 24 -24 20 -30 -26 -42 -32 -7 82 -10 427 -10 323 -1 464 2 452 9 -11
7 -160 12 -380 14 -318 3 -362 6 -365 19 -4 20 -6 20 -41 1 -26 -13 -30 -13
-42 1 -10 12 -7 20 22 44 19 16 40 27 47 25 14 -5 16 14 2 35 -8 13 -10 13
-10 -2 0 -14 -55 -50 -80 -54 -3 0 -22 -8 -44 -17 -48 -21 -47 -21 -104 4 -26
11 -62 27 -79 35 -18 7 -33 20 -33 28 0 8 -5 18 -12 22 -7 4 -8 3 -4 -5z"/>
<path d="M9037 2324 c-2 -2 -289 -6 -638 -9 -691 -5 -739 -6 -739 -18 0 -10
1489 -7 1515 3 21 9 19 10 -35 15 -19 2 -49 5 -67 8 -18 2 -34 3 -36 1z"/>
<path d="M9580 1145 l0 -1145 30 0 30 0 0 1115 0 1115 30 0 c27 0 30 3 30 30
l0 30 -60 0 -60 0 0 -1145z"/>
<path d="M7383 2254 c-3 -8 -1 -25 4 -37 6 -12 9 -38 7 -57 -47 -516 -58 -664
-79 -1060 -9 -179 -19 -332 -22 -340 -8 -24 -10 -169 -2 -164 4 2 10 0 14 -6
3 -5 1 -10 -4 -10 -6 0 -11 -5 -11 -11 0 -5 5 -7 10 -4 6 3 10 -1 10 -9 0 -8
-6 -13 -13 -11 -9 4 -12 -14 -12 -72 0 -43 3 -83 8 -90 4 -6 3 -14 -3 -18 -5
-3 -10 -17 -10 -31 0 -18 5 -24 21 -24 17 0 19 3 10 13 -7 9 -7 17 -1 23 15
15 18 254 3 254 -7 0 -13 5 -13 10 0 6 7 10 16 10 14 0 14 3 4 15 -9 10 -9 15
-1 15 6 0 11 15 11 33 0 23 -3 28 -10 17 -5 -8 -12 -11 -16 -7 -4 4 -3 12 3
18 6 6 9 18 5 27 -4 11 -1 14 11 9 20 -7 22 5 6 35 -8 15 -8 19 1 13 7 -4 10
1 8 17 -2 22 7 282 17 473 3 50 10 178 15 285 6 107 12 211 15 230 6 40 25
301 30 403 3 54 1 67 -11 67 -8 0 -17 -7 -21 -16z"/>
<path d="M9172 1883 c-6 -208 -16 -395 -21 -415 -5 -20 -6 -40 -2 -43 10 -11
9 -105 -2 -105 -5 0 -5 -6 1 -13 7 -8 9 -38 6 -78 -3 -35 -5 -79 -5 -96 0 -18
-4 -33 -9 -33 -6 0 -10 -5 -10 -11 0 -5 4 -8 9 -5 5 3 8 -18 7 -47 -1 -48 -4
-53 -33 -68 -21 -10 -29 -20 -23 -28 5 -9 10 -10 14 -2 10 16 26 14 26 -4 0
-8 -6 -15 -14 -15 -8 0 -17 -7 -20 -16 -9 -23 -1 -28 14 -9 20 24 25 18 24
-33 -2 -89 -2 -89 -19 -66 -12 16 -14 17 -15 2 0 -9 -3 -24 -6 -33 -5 -13 -2
-15 20 -9 32 8 35 -12 6 -46 -11 -13 -20 -29 -20 -37 0 -7 -7 -13 -15 -13 -8
0 -15 -9 -15 -20 0 -11 -6 -20 -12 -21 -7 0 -3 -4 10 -9 24 -10 30 -35 10 -43
-10 -4 -10 -6 0 -6 17 -1 15 -21 -3 -21 -8 0 -15 5 -15 12 0 15 -15 0 -15 -15
-1 -7 4 -15 10 -20 6 -5 3 -13 -9 -22 -14 -11 -17 -18 -9 -26 12 -12 5 -59 -9
-59 -5 0 -6 6 -3 12 4 7 -5 0 -20 -16 -14 -15 -28 -26 -30 -24 -9 9 21 57 37
62 10 2 18 9 18 15 0 6 -7 8 -15 5 -10 -4 -15 0 -15 10 0 9 -7 19 -15 22 -8 4
-15 12 -15 19 0 51 -86 57 -125 9 -25 -30 -31 -22 -19 24 5 17 11 21 25 17 23
-8 24 -1 4 29 -12 18 -13 29 -4 55 13 37 37 52 70 44 l24 -6 -27 30 c-32 34
-36 53 -9 46 29 -8 33 13 6 31 -28 18 -35 10 -9 -9 15 -10 14 -12 -7 -11 -24
1 -25 -1 -12 -47 4 -13 -1 -17 -20 -17 -20 0 -24 -4 -20 -19 5 -20 -15 -40
-26 -25 -3 5 -14 15 -23 23 -15 11 -18 11 -18 -1 0 -8 11 -20 25 -26 35 -16
31 -28 -11 -29 -26 -1 -34 2 -30 13 3 8 1 14 -5 14 -5 0 -12 -7 -15 -15 -4 -8
-14 -15 -24 -15 -24 0 -29 -10 -19 -35 7 -18 8 -18 8 -2 1 11 7 17 14 14 7 -2
11 -17 9 -36 -1 -17 2 -31 8 -31 5 0 10 -7 10 -15 0 -8 -6 -15 -13 -15 -8 0
-13 -15 -13 -42 -1 -24 1 -33 3 -22 2 12 13 30 24 40 23 20 25 47 4 67 -13 13
-13 16 1 27 8 7 15 11 17 9 22 -38 27 -54 27 -80 0 -19 -7 -37 -17 -45 -16
-12 -16 -13 -2 -14 9 0 22 -7 29 -15 10 -12 10 -15 -3 -15 -9 0 -19 4 -22 10
-3 6 -12 10 -20 10 -23 0 -5 -40 19 -41 21 0 21 0 -1 -16 -15 -10 -23 -26 -23
-44 0 -16 -4 -29 -9 -29 -5 0 -16 -3 -25 -6 -12 -4 -16 0 -16 15 0 12 -6 21
-14 21 -14 0 -32 48 -22 58 3 3 -2 11 -12 18 -13 9 -20 10 -31 1 -12 -10 -14
-9 -8 6 3 9 2 17 -3 17 -6 0 -10 -9 -10 -20 0 -11 6 -20 14 -20 16 0 46 -42
46 -64 0 -7 -7 -16 -15 -20 -8 -3 -15 -12 -15 -21 0 -21 -23 -19 -38 5 -11 17
-9 20 14 26 35 9 28 39 -11 41 -20 1 -23 0 -7 -4 12 -2 22 -8 22 -12 0 -12
-76 -32 -93 -25 -12 4 -14 1 -10 -15 3 -12 1 -21 -6 -21 -6 0 -11 7 -11 15 0
8 -4 15 -10 15 -5 0 -10 -8 -10 -19 0 -14 12 -20 53 -28 l52 -10 -64 -2 -63
-1 4 30 c3 17 1 33 -4 36 -4 3 -9 -3 -9 -13 -6 -74 -6 -73 21 -73 14 0 64 5
110 11 133 18 124 20 123 -29 -1 -24 -7 -49 -13 -57 -10 -12 -9 -15 4 -15 13
0 17 -7 14 -27 l-3 -28 -102 -3 c-83 -2 -103 -6 -103 -17 0 -13 33 -15 213
-15 118 0 343 3 500 7 l287 6 0 1094 0 1093 -158 0 -158 0 -12 -377z m-296
-1581 c-7 -11 3 -23 51 -60 26 -20 43 -28 45 -20 3 7 9 8 19 3 44 -28 84 -8
75 37 l-6 28 22 -20 c18 -17 20 -23 10 -45 -9 -20 -9 -25 2 -25 15 0 26 -30
26 -76 0 -30 -2 -31 -51 -37 -28 -4 -59 -2 -68 2 -9 5 -42 5 -76 -1 -56 -9
-146 -5 -166 8 -5 3 -9 19 -9 35 0 17 -6 32 -15 35 -11 4 -12 11 -5 23 6 12 5
22 -2 29 -9 9 -9 12 0 12 7 0 12 7 10 16 -4 25 19 28 25 4 6 -25 25 -27 23 -2
-1 13 9 19 39 23 22 3 32 7 22 8 -15 1 -16 3 -5 16 13 15 43 21 34 7z"/>
<path d="M1695 1040 c-3 -5 -3 -14 0 -20 3 -5 -10 -26 -30 -45 -21 -22 -33
-41 -28 -48 4 -7 6 -20 4 -30 -2 -14 3 -18 16 -15 10 2 18 10 18 17 0 8 6 16
13 19 24 8 13 -45 -13 -62 -15 -10 -22 -22 -19 -31 13 -32 65 -6 56 27 -5 19
7 21 48 8 14 -4 19 -8 12 -9 -9 -1 -10 -6 -3 -19 8 -15 5 -18 -17 -20 -14 -1
-30 -6 -35 -11 -12 -12 54 -23 68 -11 14 11 15 57 2 78 -5 6 -5 18 0 25 4 6 9
30 10 53 3 38 0 42 -42 72 -51 36 -51 36 -60 22z"/>
<path d="M1998 993 l-78 -4 0 -104 c0 -57 -3 -111 -6 -119 -5 -13 -1 -15 17
-12 13 3 26 5 29 5 3 1 -1 5 -9 10 -11 7 -14 28 -14 73 2 63 20 165 22 121 1
-24 21 -33 21 -9 0 12 20 26 36 26 9 0 3 -29 -7 -32 -16 -5 -19 -158 -3 -158
17 0 28 53 19 96 -4 24 -2 39 9 49 20 21 29 19 21 -5 -4 -11 -2 -20 4 -20 6 0
11 8 11 18 0 14 2 15 10 2 15 -24 12 -53 -5 -46 -15 5 -18 -12 -17 -86 1 -31
-22 -42 -62 -32 -16 4 -26 2 -26 -5 0 -7 23 -11 65 -10 56 1 65 4 65 20 0 22
-16 34 -23 17 -3 -7 -6 2 -6 21 -1 27 2 31 12 22 11 -9 14 5 16 79 1 68 -1 90
-11 88 -7 -1 -48 -4 -90 -5z"/>
<path d="M2303 988 c-2 -5 -1 -13 3 -19 3 -6 6 -50 6 -98 -1 -66 1 -79 8 -56
5 16 7 47 3 67 -4 25 -2 38 6 38 6 0 11 7 11 15 0 8 9 15 20 15 11 0 19 6 18
12 -2 7 7 14 19 16 25 4 48 -30 45 -68 -1 -25 -1 -25 6 -2 11 37 27 30 30 -12
3 -35 2 -38 -12 -27 -14 12 -16 10 -16 -17 0 -17 -3 -37 -6 -46 -3 -9 -1 -16
5 -16 6 0 11 9 11 19 0 11 5 23 10 26 6 4 10 -6 10 -23 0 -36 -24 -45 -117
-43 -39 1 -63 -3 -63 -9 0 -7 33 -10 96 -8 l95 3 1 120 1 119 -92 1 c-51 0
-95 -3 -98 -7z"/>
<path d="M2705 991 c-3 -2 -5 -15 -5 -28 0 -18 5 -23 26 -23 25 0 26 -2 20
-37 -10 -52 -10 -53 -2 -95 6 -34 5 -38 -14 -38 -18 0 -20 7 -21 58 l-2 57 -7
-55 c-4 -30 -5 -61 -2 -67 3 -9 32 -13 98 -13 78 0 94 3 94 15 0 10 -7 15 -17
13 -12 -2 -19 4 -21 20 -2 12 -7 22 -11 22 -4 0 -6 -13 -3 -30 4 -29 3 -30
-37 -30 -46 0 -55 15 -13 24 25 6 27 9 24 51 -2 25 0 45 5 45 5 0 9 9 10 20 1
11 -4 20 -12 20 -20 0 -29 20 -15 33 9 9 14 8 24 -5 7 -10 20 -18 29 -18 20 0
30 -32 22 -68 -3 -16 -1 -39 4 -53 7 -18 10 2 10 81 l1 105 -90 1 c-50 0 -93
-2 -95 -5z"/>
<path d="M3800 806 l0 -56 60 -2 c127 -4 115 -8 112 40 -2 25 1 42 7 42 6 0
11 5 11 10 0 6 -20 10 -45 10 -41 0 -44 -2 -34 -18 8 -13 9 -29 3 -48 l-8 -29
-4 37 c-4 43 -19 58 -67 65 l-35 5 0 -56z"/>
<path d="M5986 811 c-4 -5 -2 -13 4 -16 7 -4 8 -29 4 -68 -8 -72 -9 -74 -27
-55 -15 14 -17 104 -4 126 10 14 -2 16 -23 2 -8 -5 -19 -5 -25 -1 -5 4 -19 8
-30 8 -17 1 -20 -6 -22 -53 -3 -52 -2 -54 22 -54 22 0 25 -4 25 -37 l0 -38 50
-1 50 0 0 92 c0 84 -9 120 -24 95z"/>
<path d="M6153 773 c-7 -15 -13 -59 -13 -97 l0 -71 48 -1 c26 0 58 -3 72 -5
25 -4 25 -3 28 75 3 95 -1 114 -23 93 -8 -9 -24 -13 -35 -10 -24 6 -32 -10
-34 -76 -2 -71 -19 -80 -29 -16 -1 11 -6 26 -11 33 -5 8 -2 20 8 31 18 20 25
62 11 67 -5 2 -16 -8 -22 -23z"/>
<path d="M2695 508 c-2 -7 -6 -61 -7 -121 -3 -99 2 -125 16 -94 5 10 7 10 12
0 3 -7 10 -13 15 -13 6 0 7 4 4 10 -3 5 3 20 15 32 12 13 17 25 11 31 -5 5 -7
25 -4 45 4 24 3 33 -5 28 -6 -3 -10 -27 -9 -52 2 -49 -14 -68 -36 -45 -9 10
-8 15 5 25 11 8 14 16 8 22 -16 16 0 74 24 89 12 8 35 12 51 10 17 -2 34 -4
39 -4 6 -1 1 -7 -9 -15 -11 -8 -23 -12 -27 -10 -5 3 -8 1 -8 -4 0 -6 7 -12 15
-16 9 -3 20 -16 25 -28 5 -14 9 -17 9 -7 1 8 -4 20 -10 26 -6 6 -8 16 -5 22 9
14 36 2 30 -14 -3 -7 -1 -16 5 -20 6 -3 11 2 11 12 0 10 3 35 6 55 l6 36 -80
0 c-45 0 -86 3 -92 7 -5 3 -12 0 -15 -7z"/>
<path d="M2980 510 c0 -15 -84 -129 -95 -130 -5 0 -26 -23 -45 -51 -27 -40
-35 -63 -37 -102 -1 -35 3 -54 13 -62 13 -9 12 -16 -7 -53 -12 -23 -20 -45
-16 -49 14 -13 57 17 71 50 11 27 25 38 69 56 31 13 60 20 65 17 21 -13 29 21
21 94 -5 41 -11 112 -15 158 -4 45 -11 82 -15 82 -5 0 -9 -4 -9 -10z"/>
<path d="M5098 505 c-8 -8 4 -65 14 -65 5 0 6 9 3 20 -5 16 -2 20 19 20 14 0
28 -5 31 -10 4 -6 16 -10 27 -8 18 3 20 -2 20 -49 -1 -100 -2 -103 -17 -103
-8 0 -15 -3 -15 -8 0 -4 24 -8 54 -9 l54 -2 0 105 0 104 -54 0 c-32 0 -53 -4
-49 -9 3 -5 1 -12 -5 -16 -5 -3 -10 -2 -10 3 0 6 -14 15 -31 21 -37 13 -34 12
-41 6z"/>
<path d="M5854 443 c3 -21 5 -48 5 -60 1 -14 7 -23 17 -23 9 0 14 -7 12 -17
-2 -10 -11 -17 -19 -15 -13 2 -16 -10 -18 -60 -1 -34 -2 -64 -3 -67 -2 -19 4
-30 18 -35 14 -5 15 -4 5 8 -7 8 -8 17 -3 20 4 2 5 30 2 60 -5 48 -4 55 13 60
11 2 30 1 43 -4 20 -8 23 -14 18 -42 -8 -48 -12 -58 -23 -58 -5 0 -7 18 -4 40
3 23 1 40 -4 40 -16 0 -14 -76 2 -90 8 -7 15 -8 15 -3 0 5 15 9 33 9 l32 -1 3
138 3 137 -76 0 -76 0 5 -37z"/>
<path d="M6143 461 c-4 -3 -9 -41 -9 -83 -1 -67 0 -75 13 -62 20 20 37 18 28
-3 -4 -10 -8 -25 -10 -33 -1 -9 -10 -14 -24 -12 -11 2 -21 -2 -21 -7 0 -6 8
-11 17 -11 14 0 13 -4 -6 -24 l-22 -23 22 -6 c13 -4 29 -1 35 4 8 6 34 8 66 4
l53 -7 -2 128 c-1 71 -5 129 -10 131 -25 5 -124 9 -130 4z"/>
<path d="M3796 403 c-10 -78 -8 -93 14 -93 13 0 20 7 20 20 0 12 7 20 16 20
11 0 15 -6 11 -20 -5 -18 0 -20 49 -20 l54 0 0 65 0 65 -62 1 c-35 0 -70 2
-79 4 -13 2 -18 -8 -23 -42z"/>
<path d="M4154 431 c-2 -2 -4 -32 -4 -66 l0 -62 43 -1 c23 0 57 2 75 4 32 5
32 5 32 64 l0 58 -71 4 c-39 2 -73 1 -75 -1z"/>
<path d="M8346 419 c3 -5 0 -9 -7 -9 -8 0 -8 -4 1 -15 19 -23 3 -31 -20 -10
-18 16 -20 16 -20 2 0 -10 6 -17 14 -17 15 0 29 -37 16 -45 -5 -3 -11 4 -15
15 -4 12 -15 20 -28 20 -20 0 -20 0 -1 -16 18 -14 16 -15 -23 -11 -33 4 -43 2
-43 -10 0 -8 -5 -11 -11 -7 -6 3 -8 18 -5 33 4 22 3 21 -9 -6 -8 -18 -21 -33
-29 -33 -7 0 -16 -11 -18 -24 -3 -17 0 -23 11 -22 10 1 15 -6 13 -16 -2 -11 3
-18 12 -18 8 0 22 -3 30 -6 12 -5 15 -2 10 10 -4 11 2 19 21 26 34 13 33 13
38 -7 2 -10 3 -6 1 9 -4 33 4 58 18 58 6 0 7 -11 3 -27 l-6 -26 29 31 c17 18
35 32 41 32 6 0 11 7 11 15 0 8 -5 15 -11 15 -5 0 -7 -4 -4 -10 3 -5 -1 -10
-9 -10 -9 0 -16 4 -16 9 0 13 26 32 33 24 4 -3 7 1 7 10 0 10 6 17 14 17 10 0
12 -7 9 -22 -5 -19 -3 -21 8 -10 16 14 33 16 24 2 -3 -5 -3 -15 1 -22 5 -8 11
-1 18 20 l11 31 25 -19 c21 -17 23 -21 10 -30 -8 -5 -11 -10 -7 -10 13 0 57
32 57 41 0 5 -7 6 -15 2 -13 -4 -15 0 -11 21 4 23 2 26 -25 26 -16 0 -29 -4
-29 -10 0 -5 -5 -10 -11 -10 -5 0 -8 4 -4 9 3 6 -19 10 -54 9 -33 0 -58 -5
-55 -9z"/>
<path d="M5468 160 c-16 -38 -42 -52 -61 -33 -8 8 -333 5 -361 -4 -10 -3 -21
0 -25 6 -4 5 -17 8 -29 4 -18 -4 -20 -8 -11 -19 6 -8 16 -11 21 -8 6 4 14 0
19 -7 5 -8 9 -9 9 -4 0 6 105 10 296 9 163 -1 305 1 315 3 24 7 25 32 2 31
-10 0 -26 3 -35 6 -13 6 -16 3 -12 -16 5 -21 4 -22 -9 -5 -8 9 -22 17 -31 17
-9 0 -16 7 -16 15 0 8 -5 15 -10 15 -6 0 -10 -8 -8 -17 2 -13 -5 -19 -24 -21
-30 -4 -38 12 -13 22 15 5 22 46 8 46 -5 0 -16 -18 -25 -40z"/>
<path d="M3875 161 c-3 -5 1 -12 7 -15 10 -5 10 -7 1 -12 -22 -10 -14 -26 10
-20 12 3 16 3 9 0 -6 -3 -10 -10 -6 -15 3 -5 14 -4 27 3 12 7 26 11 31 10 5
-2 29 -4 55 -6 238 -19 243 -19 251 -6 5 8 13 9 21 4 19 -12 128 -11 134 1 3
6 7 5 11 -2 8 -19 54 -16 54 3 0 11 6 14 23 9 12 -4 26 -11 31 -16 6 -5 16 -9
23 -9 17 0 17 26 1 27 -7 1 -28 6 -45 11 -25 8 -36 7 -47 -3 -7 -8 -17 -10
-22 -5 -12 11 -56 16 -70 8 -13 -8 -77 -4 -117 7 -23 6 -26 5 -21 -9 8 -22
-15 -21 -33 2 -13 16 -14 15 -8 -5 5 -17 2 -23 -10 -23 -10 0 -13 5 -9 12 4 7
3 8 -5 4 -6 -4 -17 -3 -24 2 -7 6 -34 9 -60 8 -46 -1 -48 0 -42 23 5 20 4 22
-8 13 -8 -7 -17 -9 -20 -5 -4 3 -7 -1 -7 -9 0 -9 6 -19 13 -22 6 -3 -6 -3 -28
1 -49 7 -55 10 -55 29 0 8 -4 14 -10 14 -14 0 -13 -13 2 -28 6 -6 8 -15 4 -19
-4 -5 -18 4 -31 19 -13 16 -26 24 -30 19z"/>
</g>
</svg>
